<svg id="aa666a19-0d3e-48d3-a222-de99ea1de9a6" data-name="Layer 1" xmlns="http://www.w3.org/2000/svg" xmlns:xlink="http://www.w3.org/1999/xlink" viewBox="0 0 1024 1024"><defs><style>.ba08aaf9-0f0d-48fc-a7ba-aaffe09ee4e9{fill:#fff;}.a72e0e1d-b8f1-40f3-9d6e-03a2e041f295{fill:url(#f8ef507f-ee72-4285-a72e-6c8a05f0daac);}</style><radialGradient id="f8ef507f-ee72-4285-a72e-6c8a05f0daac" cx="848.1078" cy="835.3104" r="863.6802" gradientTransform="translate(1.3491 1.3438)" gradientUnits="userSpaceOnUse"><stop offset="0" stop-color="#6e60f9"/><stop offset="0.4737" stop-color="#b2478e"/><stop offset="0.5972" stop-color="#c86193"/><stop offset="0.7816" stop-color="#ef8f9d"/><stop offset="0.8391" stop-color="#f19ca5"/><stop offset="0.9454" stop-color="#f6bfb9"/><stop offset="1" stop-color="#f9d3c5"/></radialGradient></defs><rect class="ba08aaf9-0f0d-48fc-a7ba-aaffe09ee4e9" x="-0.5" y="-0.5" width="1025" height="1025"/><path d="M1024,0V1024H0V0H1024m1-1H-1V1025H1025V-1Z"/><path class="a72e0e1d-b8f1-40f3-9d6e-03a2e041f295" d="M903.168,890.8236,849.5689,690.7879A382.4789,382.4789,0,0,0,893.82,512c0-212.3241-172.1229-384.447-384.447-384.447S124.928,299.6759,124.928,512,297.0491,896.447,509.3732,896.447a382.0684,382.0684,0,0,0,201.1113-57.252Z"/><path class="ba08aaf9-0f0d-48fc-a7ba-aaffe09ee4e9" d="M626.5883,457.36C599.184,336.459,534.4525,296.71,527.4865,281.5171c-7.6515-10.73-15.351-29.7528-15.351-29.7528-.1386-.3214-.3356-.887-.5753-1.4383-.7814,10.6764-1.1986,14.8521-11.3237,25.6585-15.6866,12.2683-96.1811,79.79-102.7351,217.159C391.3931,621.2212,490.053,697.5693,503.42,707.3018l1.5147,1.069c.0117-.0265.0233-.0615.035-.0881.0881.6395,4.2359,30.4843,7.1293,62.1173l10.4465.0239a618.122,618.122,0,0,1,11.0231-66.5209l.806-.5436a172.0851,172.0851,0,0,0,17.0381-13.9366l.6051-.5468c28.3605-26.1973,79.3452-86.7972,78.845-183.4357A293.1729,293.1729,0,0,0,626.5883,457.36ZM510.9525,634.9723s0-179.6808,6.0188-179.6478c4.6181.0253,10.6137,231.7675,10.6137,231.7675C519.2687,686.105,510.9525,648.9523,510.9525,634.9723Z"/></svg>